<svg xmlns="http://www.w3.org/2000/svg" viewBox="0 0 1024 1024"><path d="M438.02 158.71C274.952 100.937 124.954 217.862 108.2 375.389L108.176 375.627C96.411 494.694 155.003 588.74 229.381 664.994C279.8 716.685 341.451 763.806 396.774 806.093C421.44 824.947 444.851 842.837 465.442 859.746C490.227 880.341 525.713 886.029 555.785 873.758C569.195 868.553 580.096 859.396 586.249 854.229C586.995 853.602 587.669 853.035 588.271 852.54C607.258 836.979 628.45 820.604 650.697 803.409C707.959 759.155 772.228 709.483 824.004 654.362C897.161 576.474 952.832 480.55 935.501 360.523L935.462 360.254C909.589 191.231 732.113 94.748 578.398 170.915M171.854 382.04C184.931 259.716 298.103 177.014 416.685 219.049L416.778 219.081C448.145 230.092 476.681 249.275 498.88 274.13C504.96 280.935 513.655 284.822 522.782 284.813C531.904 284.804 540.591 280.9 546.658 274.083C563.473 255.181 584.051 239.536 606.81 228.262C720.265 172.042 852.548 242.121 872.179 369.804C885.461 462.161 844.241 539.332 777.353 610.543C729.28 661.726 671.718 706.202 615.932 749.299C592.597 767.326 569.54 785.143 547.652 803.081L547.43 803.264C538.295 810.769 535.646 812.949 532.608 814.101C532.305 814.217 532.006 814.336 531.708 814.46C523.708 817.775 513.135 816.179 506.325 810.505L506.142 810.351C482.01 790.537 456.516 771.076 430.694 751.364C377.245 710.562 322.373 668.672 275.196 620.305C206.702 550.084 162.827 473.843 171.854 382.04ZM578.398 170.915C558.374 180.832 539.618 193.314 522.718 207.972C497.911 186.487 469.09 169.623 438.02 158.71"/></svg>