<svg width="24" height="24" viewBox="0 0 24 24" fill="none" xmlns="http://www.w3.org/2000/svg">
<path d="M15.176 14.177C15.4104 13.9427 15.7894 13.9427 16.0237 14.177C16.2577 14.4113 16.2579 14.7904 16.0237 15.0247L12.0237 19.0247C11.7895 19.2587 11.4103 19.2586 11.176 19.0247L7.17604 15.0247C6.94178 14.7904 6.9419 14.4113 7.17604 14.177C7.41036 13.9427 7.78938 13.9427 8.0237 14.177L11.5999 17.7532L15.176 14.177ZM11.2698 5.09888C11.5026 4.94525 11.8187 4.97113 12.0237 5.17603L16.0237 9.17603C16.2579 9.41028 16.2578 9.78935 16.0237 10.0237C15.7894 10.258 15.4104 10.258 15.176 10.0237L11.5999 6.44751L8.0237 10.0237C7.78938 10.258 7.41036 10.258 7.17604 10.0237C6.94181 9.78936 6.94176 9.41031 7.17604 9.17603L11.176 5.17603L11.2698 5.09888Z" fill="currentColor"/>
</svg>
